<svg xmlns="http://www.w3.org/2000/svg" width="20" height="20" viewBox="0 0 24 24" fill="currentColor" aria-hidden="true">
  <path d="M12 .5A12 12 0 0 0 0 12.6c0 5.3 3.4 9.7 8 11.3.6.1.8-.3.8-.6v-2c-3.3.7-4-1.6-4-1.6-.6-1.6-1.4-2-1.4-2-1.2-.8.1-.8.1-.8 1.4.1 2.1 1.5 2.1 1.5 1.2 2.1 3.2 1.5 4 .9.1-.9.5-1.5.9-1.8-2.7-.3-5.6-1.4-5.6-6.4 0-1.4.5-2.6 1.3-3.6-.1-.3-.6-1.7.1-3.6 0 0 1.1-.4 3.7 1.4a12.4 12.4 0 0 1 6.8 0c2.6-1.8 3.7-1.4 3.7-1.4.7 1.9.2 3.3.1 3.6.8 1 1.3 2.2 1.3 3.6 0 5-2.9 6.2-5.6 6.5.5.4 1 1.3 1 2.7v4c0 .3.2.7.8.6 4.6-1.6 8-6 8-11.3A12 12 0 0 0 12 .5z"/>
</svg>
