<svg xmlns="http://www.w3.org/2000/svg" viewBox="0 0 533.5 544.3" width="20" height="20" aria-hidden="true">
  <path fill="#4285F4" d="M533.5 278.4c0-18.5-1.7-36.3-4.9-53.6H272v101.4h147.1c-6.4 34.7-26 64-55.3 83.7v69.4h89.5c52.4-48.3 80.2-119.4 80.2-200.9z"/>
  <path fill="#34A853" d="M272 544.3c72.9 0 134.2-24.1 178.9-65.4l-89.5-69.4c-24.9 16.7-56.8 26.4-89.4 26.4-68.6 0-126.7-46.3-147.5-108.4H33.3v68.1c44.4 88 134.5 148.7 238.7 148.7z"/>
  <path fill="#FBBC05" d="M124.5 327.5c-10.9-32.1-10.9-66.9 0-99l.1-68.1H33.3C-11.1 248.3-11.1 352 33.4 420.6l91.1-93.1z"/>
  <path fill="#EA4335" d="M272 106.1c39.6-.6 77.7 13.7 106.9 40.2l79.8-79.8C419.9 22.1 348.3-2 272 0 167.8 0 77.8 60.7 33.4 148.8l91.1 68.1C145.3 154.8 203.4 108.5 272 108.5z"/>
</svg>
